<mxfile host="app.diagrams.net" agent="Mozilla/5.0 (Windows NT 10.0; Win64; x64) AppleWebKit/537.36 (KHTML, like Gecko) Chrome/127.0.0.0 Safari/537.36" version="24.7.7">
  <diagram name="Page-1" id="cJmAh6d_UECNRlBE5zUc">
    <mxGraphModel dx="683" dy="653" grid="1" gridSize="10" guides="1" tooltips="1" connect="1" arrows="1" fold="1" page="1" pageScale="1" pageWidth="850" pageHeight="1100" math="0" shadow="0">
      <root>
        <mxCell id="0" />
        <mxCell id="1" parent="0" />
        <mxCell id="ae6wuDRIwjN6TxwrAj0e-24" style="edgeStyle=orthogonalEdgeStyle;rounded=0;orthogonalLoop=1;jettySize=auto;html=1;" edge="1" parent="1" source="ae6wuDRIwjN6TxwrAj0e-20" target="ae6wuDRIwjN6TxwrAj0e-23">
          <mxGeometry relative="1" as="geometry" />
        </mxCell>
        <mxCell id="ae6wuDRIwjN6TxwrAj0e-20" value="START AT&lt;div&gt;GIT REPO&lt;/div&gt;" style="ellipse;whiteSpace=wrap;html=1;aspect=fixed;" vertex="1" parent="1">
          <mxGeometry x="760" y="240" width="80" height="80" as="geometry" />
        </mxCell>
        <mxCell id="ae6wuDRIwjN6TxwrAj0e-27" style="edgeStyle=orthogonalEdgeStyle;rounded=0;orthogonalLoop=1;jettySize=auto;html=1;" edge="1" parent="1" source="ae6wuDRIwjN6TxwrAj0e-21" target="ae6wuDRIwjN6TxwrAj0e-25">
          <mxGeometry relative="1" as="geometry" />
        </mxCell>
        <mxCell id="ae6wuDRIwjN6TxwrAj0e-33" style="edgeStyle=orthogonalEdgeStyle;rounded=0;orthogonalLoop=1;jettySize=auto;html=1;" edge="1" parent="1" source="ae6wuDRIwjN6TxwrAj0e-21" target="ae6wuDRIwjN6TxwrAj0e-30">
          <mxGeometry relative="1" as="geometry" />
        </mxCell>
        <mxCell id="ae6wuDRIwjN6TxwrAj0e-21" value="rebuild&lt;div&gt;image&lt;/div&gt;" style="rhombus;whiteSpace=wrap;html=1;" vertex="1" parent="1">
          <mxGeometry x="760" y="520" width="80" height="80" as="geometry" />
        </mxCell>
        <mxCell id="ae6wuDRIwjN6TxwrAj0e-26" style="edgeStyle=orthogonalEdgeStyle;rounded=0;orthogonalLoop=1;jettySize=auto;html=1;" edge="1" parent="1" source="ae6wuDRIwjN6TxwrAj0e-23" target="ae6wuDRIwjN6TxwrAj0e-25">
          <mxGeometry relative="1" as="geometry" />
        </mxCell>
        <mxCell id="ae6wuDRIwjN6TxwrAj0e-28" style="edgeStyle=orthogonalEdgeStyle;rounded=0;orthogonalLoop=1;jettySize=auto;html=1;" edge="1" parent="1" source="ae6wuDRIwjN6TxwrAj0e-23" target="ae6wuDRIwjN6TxwrAj0e-21">
          <mxGeometry relative="1" as="geometry" />
        </mxCell>
        <mxCell id="ae6wuDRIwjN6TxwrAj0e-23" value="image&lt;div&gt;exists&lt;/div&gt;" style="rhombus;whiteSpace=wrap;html=1;" vertex="1" parent="1">
          <mxGeometry x="760" y="360" width="80" height="80" as="geometry" />
        </mxCell>
        <mxCell id="ae6wuDRIwjN6TxwrAj0e-38" style="edgeStyle=orthogonalEdgeStyle;rounded=0;orthogonalLoop=1;jettySize=auto;html=1;" edge="1" parent="1" source="ae6wuDRIwjN6TxwrAj0e-25" target="ae6wuDRIwjN6TxwrAj0e-29">
          <mxGeometry relative="1" as="geometry" />
        </mxCell>
        <mxCell id="ae6wuDRIwjN6TxwrAj0e-25" value="build image" style="rounded=1;whiteSpace=wrap;html=1;" vertex="1" parent="1">
          <mxGeometry x="920" y="550" width="120" height="20" as="geometry" />
        </mxCell>
        <mxCell id="ae6wuDRIwjN6TxwrAj0e-39" style="edgeStyle=orthogonalEdgeStyle;rounded=0;orthogonalLoop=1;jettySize=auto;html=1;" edge="1" parent="1" source="ae6wuDRIwjN6TxwrAj0e-29" target="ae6wuDRIwjN6TxwrAj0e-30">
          <mxGeometry relative="1" as="geometry" />
        </mxCell>
        <mxCell id="ae6wuDRIwjN6TxwrAj0e-29" value="push to docker hub" style="rounded=1;whiteSpace=wrap;html=1;" vertex="1" parent="1">
          <mxGeometry x="920" y="710" width="120" height="20" as="geometry" />
        </mxCell>
        <mxCell id="ae6wuDRIwjN6TxwrAj0e-32" style="edgeStyle=orthogonalEdgeStyle;rounded=0;orthogonalLoop=1;jettySize=auto;html=1;" edge="1" parent="1" source="ae6wuDRIwjN6TxwrAj0e-30" target="ae6wuDRIwjN6TxwrAj0e-31">
          <mxGeometry relative="1" as="geometry" />
        </mxCell>
        <mxCell id="ae6wuDRIwjN6TxwrAj0e-47" style="edgeStyle=orthogonalEdgeStyle;rounded=0;orthogonalLoop=1;jettySize=auto;html=1;" edge="1" parent="1" source="ae6wuDRIwjN6TxwrAj0e-30" target="ae6wuDRIwjN6TxwrAj0e-46">
          <mxGeometry relative="1" as="geometry" />
        </mxCell>
        <mxCell id="ae6wuDRIwjN6TxwrAj0e-30" value="&lt;font style=&quot;font-size: 10px;&quot;&gt;dependencies&lt;/font&gt;" style="rhombus;whiteSpace=wrap;html=1;" vertex="1" parent="1">
          <mxGeometry x="760" y="680" width="80" height="80" as="geometry" />
        </mxCell>
        <mxCell id="ae6wuDRIwjN6TxwrAj0e-45" style="edgeStyle=orthogonalEdgeStyle;rounded=0;orthogonalLoop=1;jettySize=auto;html=1;" edge="1" parent="1" source="ae6wuDRIwjN6TxwrAj0e-31" target="ae6wuDRIwjN6TxwrAj0e-44">
          <mxGeometry relative="1" as="geometry" />
        </mxCell>
        <mxCell id="ae6wuDRIwjN6TxwrAj0e-31" value="launch with params" style="rounded=1;whiteSpace=wrap;html=1;" vertex="1" parent="1">
          <mxGeometry x="740" y="800" width="120" height="20" as="geometry" />
        </mxCell>
        <mxCell id="ae6wuDRIwjN6TxwrAj0e-34" value="True" style="text;html=1;align=center;verticalAlign=middle;whiteSpace=wrap;rounded=0;" vertex="1" parent="1">
          <mxGeometry x="790" y="430" width="60" height="30" as="geometry" />
        </mxCell>
        <mxCell id="ae6wuDRIwjN6TxwrAj0e-35" value="False" style="text;html=1;align=center;verticalAlign=middle;whiteSpace=wrap;rounded=0;" vertex="1" parent="1">
          <mxGeometry x="820" y="370" width="60" height="30" as="geometry" />
        </mxCell>
        <mxCell id="ae6wuDRIwjN6TxwrAj0e-36" value="True" style="text;html=1;align=center;verticalAlign=middle;whiteSpace=wrap;rounded=0;" vertex="1" parent="1">
          <mxGeometry x="820" y="530" width="60" height="30" as="geometry" />
        </mxCell>
        <mxCell id="ae6wuDRIwjN6TxwrAj0e-37" value="False" style="text;html=1;align=center;verticalAlign=middle;whiteSpace=wrap;rounded=0;" vertex="1" parent="1">
          <mxGeometry x="790" y="590" width="60" height="30" as="geometry" />
        </mxCell>
        <mxCell id="ae6wuDRIwjN6TxwrAj0e-40" value="False" style="text;html=1;align=center;verticalAlign=middle;whiteSpace=wrap;rounded=0;" vertex="1" parent="1">
          <mxGeometry x="790" y="750" width="60" height="30" as="geometry" />
        </mxCell>
        <mxCell id="ae6wuDRIwjN6TxwrAj0e-41" value="True" style="text;html=1;align=center;verticalAlign=middle;whiteSpace=wrap;rounded=0;" vertex="1" parent="1">
          <mxGeometry x="720" y="690" width="60" height="30" as="geometry" />
        </mxCell>
        <mxCell id="ae6wuDRIwjN6TxwrAj0e-44" value="SERVICE&lt;div&gt;STARTED&lt;/div&gt;" style="ellipse;whiteSpace=wrap;html=1;aspect=fixed;" vertex="1" parent="1">
          <mxGeometry x="760" y="860" width="80" height="80" as="geometry" />
        </mxCell>
        <mxCell id="ae6wuDRIwjN6TxwrAj0e-51" style="edgeStyle=orthogonalEdgeStyle;rounded=0;orthogonalLoop=1;jettySize=auto;html=1;" edge="1" parent="1" source="ae6wuDRIwjN6TxwrAj0e-46" target="ae6wuDRIwjN6TxwrAj0e-50">
          <mxGeometry relative="1" as="geometry" />
        </mxCell>
        <mxCell id="ae6wuDRIwjN6TxwrAj0e-46" value="pull dep in directory" style="rounded=1;whiteSpace=wrap;html=1;" vertex="1" parent="1">
          <mxGeometry x="560" y="630" width="120" height="20" as="geometry" />
        </mxCell>
        <mxCell id="ae6wuDRIwjN6TxwrAj0e-52" style="edgeStyle=orthogonalEdgeStyle;rounded=0;orthogonalLoop=1;jettySize=auto;html=1;" edge="1" parent="1" source="ae6wuDRIwjN6TxwrAj0e-50" target="ae6wuDRIwjN6TxwrAj0e-23">
          <mxGeometry relative="1" as="geometry">
            <mxPoint x="710" y="400" as="targetPoint" />
            <Array as="points">
              <mxPoint x="620" y="400" />
            </Array>
          </mxGeometry>
        </mxCell>
        <mxCell id="ae6wuDRIwjN6TxwrAj0e-50" value="git ignore" style="rounded=1;whiteSpace=wrap;html=1;" vertex="1" parent="1">
          <mxGeometry x="560" y="470" width="120" height="20" as="geometry" />
        </mxCell>
      </root>
    </mxGraphModel>
  </diagram>
</mxfile>
